<svg id="Logo" xmlns="http://www.w3.org/2000/svg" xmlns:xlink="http://www.w3.org/1999/xlink" width="125" height="112.017" viewBox="0 0 125 112.017">
  <defs>
    <linearGradient id="linear-gradient" x1="0.473" y1="0.243" x2="0.468" y2="1.278" gradientUnits="objectBoundingBox">
      <stop offset="0" stop-color="#fefff1"/>
      <stop offset="1" stop-color="#e4e5dd"/>
    </linearGradient>
    <linearGradient id="linear-gradient-2" x1="0.5" y1="0.305" x2="0.5" y2="1.223" gradientUnits="objectBoundingBox">
      <stop offset="0" stop-color="#585655"/>
      <stop offset="1" stop-color="#0d0d0d"/>
    </linearGradient>
    <linearGradient id="linear-gradient-3" x1="0.512" y1="1.177" x2="0.5" y2="-0.106" xlink:href="#linear-gradient-2"/>
  </defs>
  <path id="Union_3" data-name="Union 3" d="M33.661,96.363H0V74.488H13.034l-.518-45.339L61.027,0,110.18,26.859l.544,47.628H125V96.363H88.361L62.308,112.018Z" transform="translate(0)" fill="#4d675a"/>
  <path id="Polygon_8" data-name="Polygon 8" d="M48.683,0,80.459,10.644,97.366,37.6,91.494,68.244l-25.9,20H31.776l-25.9-20L0,37.6,16.907,10.644Z" transform="translate(18.725 3.513) rotate(7)" fill="#9bceb5"/>
  <path id="Union_1" data-name="Union 1" d="M0,79.994V64.37H24.926L10.99,40,33.858,0H79.594l22.868,40L88.526,64.37h27.1V79.994Z" transform="translate(4.687 13.243)" fill="url(#linear-gradient)"/>
  <path id="Path_52" data-name="Path 52" d="M25.636,15.519c-1.3,0-1.95-3.169-1.95-7.637C25.23.487,26.042-3.088,26.042-5.85s-3.25-3.819-3.25-3.819A7.415,7.415,0,0,0,15.4-14.788C7.436-14.788-.364-5.444-.364,7.231c0,9.262,5.931,12.594,9.831,12.594,4.956,0,7.719-4.55,8.937-7.881,0,2.925,2.519,7.069,6.825,7.069A5.526,5.526,0,0,0,30.1,16.656a41.088,41.088,0,0,0,4.144-8.612,5.8,5.8,0,0,0,.325-1.3,1.337,1.337,0,0,0-1.381-1.137c-.731,0-.975.894-.975.894S28.236,15.519,25.636,15.519ZM16.13-11.538a4.093,4.093,0,0,1,3.656,3.494c0,2.925-.975,6.825-1.787,11.619-1.3,7.312-5.362,12.919-7.8,12.919-1.95,0-3.656-2.275-3.656-7.881C6.542-.894,11.255-11.538,16.13-11.538Zm16.737-3.9A2.989,2.989,0,0,0,29.7-12.513c0,.325,1.3.569,3.087.65C32.38-6.419,31.973.244,31.973,6.825c0,8.369,4.794,13.162,9.587,13.162a8.218,8.218,0,0,0,5.931-3.331,41.087,41.087,0,0,0,4.144-8.612,7.405,7.405,0,0,0,.244-1.3A1.282,1.282,0,0,0,50.5,5.606c-.65,0-.894.894-.894.894s-3.737,8.937-6.337,8.937c-2.681,0-5.281-3.656-5.281-11.456,0-6.337.163-11.537.406-15.681h4.631c1.625,0,3.25-1.706,3.25-2.762,0-.406-1.381-.569-3.25-.569-1.137,0-2.762-.081-4.387-.162.325-4.062.65-6.744.65-8.044,0-2.762-2.6-4.469-4.794-4.469-.812,0-1.381.325-1.381.975a17.543,17.543,0,0,1,.406,4.062c0,1.381-.244,3.9-.487,7.231ZM51.473-33.8c-1.787,0-2.194,1.219-2.194,4.387V-2.925a159.374,159.374,0,0,0,.65,16.331,4.229,4.229,0,0,0,5.119,3.981,11.243,11.243,0,0,0,6.906,2.437A11.775,11.775,0,0,0,67.8,18.2c5.444,0,11.456-1.869,14.462-10.156a5.8,5.8,0,0,0,.325-1.3,1.337,1.337,0,0,0-1.381-1.137c-.731,0-.975.894-.975.894-2.275,5.362-5.687,7.394-8.45,8.125,2.6-3.412,4.306-8.531,4.306-15.519,0-8.369-3.412-14.219-9.587-14.219C57.323-15.113,54.48,1.869,54.236,3.9c0-.569.163-4.062.163-11.212C55.942-15.6,57-22.831,57-27.219S53.667-33.8,51.473-33.8Zm4.55,45.337c0-3.737,4.875-22.669,9.344-22.669,2.762,0,4.225,3.25,4.225,9.019,0,7.312-1.625,12.512-3.656,15.519a1.912,1.912,0,0,0-.65-.162,3.2,3.2,0,0,0-2.762,2.925v.244a3.26,3.26,0,0,1-1.219.244A5.324,5.324,0,0,1,56.023,11.537Z" transform="translate(21.67 49.226)" fill="url(#linear-gradient-2)"/>
  <g id="Group_86" data-name="Group 86" transform="translate(19.046 79.708)">
    <path id="Path_41" data-name="Path 41" d="M2.043-12.621H4.43L6.257-1.5H4.494l-.32-2.207v.032h-2L1.85-1.5H.216ZM3.966-5.189,3.18-10.684H3.148L2.379-5.189Zm3.141-7.432H9.318l1.715,6.654h.032v-6.654h1.57V-1.5H10.824L8.709-9.62H8.677V-1.5H7.106Zm8.2,0H17.7L19.525-1.5H17.762l-.32-2.207v.032h-2L15.118-1.5H13.484Zm1.923,7.432-.785-5.495h-.032l-.769,5.495Zm3.141-7.432h1.763v9.529h2.9V-1.5H20.374Zm5.721,6.384-2.131-6.384h1.875l1.2,4.081h.032l1.2-4.081h1.715L27.857-6.237V-1.5H26.095Zm6.137-4.8H30.389v-1.588h5.448v1.588H33.994V-1.5H32.232Zm4.455-1.588h1.763V-1.5H36.686Zm5.56,11.276a2.509,2.509,0,0,1-1.931-.715,2.85,2.85,0,0,1-.665-2.017v-5.971a2.85,2.85,0,0,1,.665-2.017,2.509,2.509,0,0,1,1.931-.715,2.509,2.509,0,0,1,1.931.715,2.85,2.85,0,0,1,.665,2.017v1.175H43.176V-10.16q0-1.032-.881-1.032t-.881,1.032V-3.95q0,1.016.881,1.016t.881-1.016v-1.7h1.666v1.572a2.85,2.85,0,0,1-.665,2.017A2.509,2.509,0,0,1,42.247-1.346Zm5.977,0a2.489,2.489,0,0,1-1.939-.723,2.976,2.976,0,0,1-.657-2.072v-.635h1.666v.762q0,1.08.913,1.08a.862.862,0,0,0,.681-.262,1.266,1.266,0,0,0,.232-.85,2.338,2.338,0,0,0-.32-1.231,5.889,5.889,0,0,0-1.186-1.278,7.054,7.054,0,0,1-1.522-1.723,3.489,3.489,0,0,1-.433-1.739,2.882,2.882,0,0,1,.673-2.041,2.541,2.541,0,0,1,1.955-.723,2.442,2.442,0,0,1,1.915.723,3,3,0,0,1,.649,2.072v.461H49.185V-10.1a1.269,1.269,0,0,0-.224-.834.817.817,0,0,0-.657-.262q-.881,0-.881,1.064A2.085,2.085,0,0,0,47.751-9a6.244,6.244,0,0,0,1.194,1.27A6.553,6.553,0,0,1,50.467-6a3.814,3.814,0,0,1,.417,1.826,2.962,2.962,0,0,1-.681,2.1A2.574,2.574,0,0,1,48.224-1.346Z" transform="translate(-0.216 12.78)" fill="url(#linear-gradient-3)"/>
    <path id="Path_42" data-name="Path 42" d="M6.1-1.346a2.541,2.541,0,0,1-1.955-.723,2.93,2.93,0,0,1-.673-2.072V-9.985a2.93,2.93,0,0,1,.673-2.072A2.541,2.541,0,0,1,6.1-12.78a2.541,2.541,0,0,1,1.955.723A2.93,2.93,0,0,1,8.73-9.985v.953H7.063V-10.1q0-1.1-.913-1.1t-.913,1.1v6.082q0,1.08.913,1.08t.913-1.08V-6.189H6.182V-7.777H8.73v3.637a2.93,2.93,0,0,1-.673,2.072A2.541,2.541,0,0,1,6.1-1.346ZM9.868-12.621h2.612a2.712,2.712,0,0,1,1.987.627,2.634,2.634,0,0,1,.625,1.93v.683q0,1.731-1.154,2.192v.032a1.372,1.372,0,0,1,.905.778,3.887,3.887,0,0,1,.264,1.572v1.953a7.4,7.4,0,0,0,.032.77,1.919,1.919,0,0,0,.16.58H13.5a2.527,2.527,0,0,1-.128-.508,7.578,7.578,0,0,1-.032-.858V-4.9A1.713,1.713,0,0,0,13.1-5.967a1.056,1.056,0,0,0-.857-.3H11.63V-1.5H9.868Zm2.4,4.764a1.064,1.064,0,0,0,.793-.27,1.268,1.268,0,0,0,.264-.905V-9.89a1.4,1.4,0,0,0-.216-.873.821.821,0,0,0-.681-.27h-.8v3.176Zm6.6,6.511a2.6,2.6,0,0,1-1.987-.731A2.893,2.893,0,0,1,16.2-4.141V-9.985a2.893,2.893,0,0,1,.689-2.065,2.6,2.6,0,0,1,1.987-.731,2.6,2.6,0,0,1,1.987.731,2.893,2.893,0,0,1,.689,2.065v5.844a2.893,2.893,0,0,1-.689,2.065A2.6,2.6,0,0,1,18.873-1.346Zm0-1.588q.913,0,.913-1.1V-10.1q0-1.1-.913-1.1t-.913,1.1V-4.03Q17.96-2.934,18.873-2.934ZM25.3-1.346a2.541,2.541,0,0,1-1.955-.723,2.93,2.93,0,0,1-.673-2.072v-8.48h1.763v8.608a1.2,1.2,0,0,0,.232.826.856.856,0,0,0,.665.254A.856.856,0,0,0,26-3.188a1.2,1.2,0,0,0,.232-.826v-8.608h1.7v8.48a2.93,2.93,0,0,1-.673,2.072A2.541,2.541,0,0,1,25.3-1.346Zm3.878-11.276h2.6a2.58,2.58,0,0,1,1.971.7A2.885,2.885,0,0,1,34.4-9.874v1.1a2.885,2.885,0,0,1-.657,2.049,2.58,2.58,0,0,1-1.971.7h-.833V-1.5H29.176Zm2.6,5a.833.833,0,0,0,.649-.238,1.2,1.2,0,0,0,.216-.81V-9.985a1.2,1.2,0,0,0-.216-.81.833.833,0,0,0-.649-.238h-.833v3.414Z" transform="translate(53.703 12.78)" fill="url(#linear-gradient-3)"/>
  </g>
</svg>
